The City of Lost Children 1995 DVDRip(Eng Dub) Xvid fasamoo LKRG


RIPPER                           : fasamoo
Format                           : AVI
Format/Info                      : Audio Video Interleave
File size                        : 695 MiB
Duration                         : 1h 48mn
Overall bit rate                 : 894 Kbps
Writing application              : VirtualDubMod 1.5.4.1 (build 2178/release)
Writing library                  : VirtualDubMod build 2178/release
Language                         : English(Dubbed)
Genre                            : Adventure | Comedy | Drama | Fantasy | Sci-Fi

Video
ID                               : 0
Format                           : MPEG-4 Visual
Format profile                   : Advanced Simple@L5
Format settings, BVOP            : Yes
Format settings, QPel            : No
Format settings, GMC             : No warppoints
Format settings, Matrix          : Custom
Codec ID                         : XVID
Codec ID/Hint                    : XviD
Duration                         : 1h 48mn
Bit rate                         : 767 Kbps
Width                            : 544 pixels
Height                           : 288 pixels
Display aspect ratio             : 1.889
Frame rate                       : 25.000 fps
Color space                      : YUV
Chroma subsampling               : 4:2:0
Bit depth                        : 8 bits
Scan type                        : Progressive
Bits/(Pixel*Frame)               : 0.196
Stream size                      : 596 MiB (86%)
Writing library                  : XviD 1.2.1 (UTC 2008-12-04)

Audio
ID                               : 1
Format                           : MPEG Audio
Format version                   : Version 1
Format profile                   : Layer 3
Mode                             : Joint stereo
Codec ID                         : 55
Codec ID/Hint                    : MP3
Duration                         : 1h 48mn
Bit rate mode                    : Variable
Bit rate                         : 115 Kbps
Nominal bit rate                 : 128 Kbps
Channel(s)                       : 2 channels
Sampling rate                    : 48.0 KHz
Stream size                      : 89.0 MiB (13%)
Alignment                        : Aligned on interleaves
Interleave, duration             : 24 ms (0.60 video frame)
Interleave, preload duration     : 582 ms
Writing library                  : LAME3.98r
Encoding settings                : -m j -V 4 -q 2 -lowpass 17 --abr 128

                                PLOT

In a surrealistic and bizarre society, children have been abducted by a mad and evil scientist, Krank, who wants to steal their dreams and stop and reverse his accelerated aging process. When the gang of Cyclops kidnap Denree , the little brother of the former whale hunter One, he is helped by the young street orphan girl Miette, who steals for the Siamese Pieuvre, to reach the platform where Krank leaves with his cloned dwarf wife Mademoiselle Bismuth, his six cloned sons and a brain, and rescue the children. 


                                 IMBD
                     
                 http://www.imdb.com/title/tt0112682/
 
http://leetleech.org/images/24869305072157884039.png 
http://leetleech.org/images/06664830466127878858.png 
http://leetleech.org/images/70309737012946044112.png 
http://leetleech.org/images/34661960017181610023.png 
http://leetleech.org/images/72307247757899887312.png